<?xml version="1.0" standalone="no"?>
<!DOCTYPE svg PUBLIC "-//W3C//DTD SVG 20010904//EN"
 "http://www.w3.org/TR/2001/REC-SVG-20010904/DTD/svg10.dtd">
<svg version="1.0" xmlns="http://www.w3.org/2000/svg"
 width="330.000000pt" height="199.000000pt" viewBox="0 0 330.000000 199.000000"
 preserveAspectRatio="xMidYMid meet">

<g transform="translate(0.000000,199.000000) scale(0.100000,-0.100000)"
fill="#000000" stroke="none">
<path d="M1090 1971 c-281 -10 -345 -17 -442 -47 -165 -52 -238 -154 -284
-394 -27 -143 -39 -516 -26 -772 31 -589 117 -706 545 -740 208 -17 1330 -17
1529 0 176 14 231 26 311 66 159 80 217 244 239 673 9 179 9 287 0 465 -17
331 -51 485 -133 587 -74 95 -180 135 -399 151 -180 13 -1057 20 -1340 11z
m670 -756 c237 -118 430 -219 430 -225 0 -7 -850 -440 -865 -440 -3 0 -5 198
-5 440 0 242 2 440 5 440 3 0 199 -97 435 -215z"/>
</g>
</svg>
